# Blender v2.81 (sub 16) OBJ File: ''
# www.blender.org
mtllib CoralGreen.mtl
o Coral_CoralMesh.001
v -0.018649 0.233401 -0.017314
v 0.002596 0.322399 -0.013188
v 0.013169 0.011207 -0.022996
v 0.018895 0.245253 -0.004506
v 0.008342 0.471338 0.010429
v 0.025924 0.018633 0.028316
v -0.029224 0.290781 -0.002822
v -0.027126 0.327161 0.017567
v -0.015571 0.479810 0.009116
v -0.015003 0.319729 0.030276
v 0.001914 0.339768 0.028954
v -0.007427 0.505179 0.010681
v -0.024943 -0.001745 0.027305
v -0.025433 0.012528 0.041357
v -0.038143 0.018938 0.028621
v -0.024943 -0.001745 -0.010328
v -0.038216 0.018288 -0.009977
v -0.024981 0.011151 -0.023053
v 0.012690 -0.001745 0.027305
v 0.013510 0.012777 0.041254
v 0.012690 -0.001745 -0.010328
v 0.025966 0.018256 -0.009973
v -0.008689 0.470894 -0.001125
v -0.017089 0.013647 0.036213
v -0.004468 0.291717 0.063403
v 0.008354 0.007573 0.039372
v 0.015393 0.014655 0.070932
v 0.011528 0.159413 0.057324
v 0.005006 0.304735 0.074245
v -0.016921 0.001827 0.069129
v -0.017515 0.010445 0.078450
v -0.025273 0.014838 0.070392
v -0.016683 0.003059 0.045265
v -0.026356 0.018521 0.044970
v 0.006975 0.001752 0.069363
v 0.007205 0.010425 0.078738
v -0.004813 0.323894 0.075261
v -0.012496 0.299222 0.072713
v 0.015673 0.015630 0.046462
v -0.022614 -0.001921 -0.019893
v -0.023014 0.008464 -0.012414
v -0.031101 0.011030 -0.020838
v -0.023246 -0.005301 -0.043541
v -0.033256 0.009915 -0.046311
v -0.024388 0.003503 -0.054230
v 0.001273 -0.001778 -0.020552
v 0.010733 0.013385 -0.021933
v 0.001868 0.008521 -0.013017
v 0.008896 0.007516 -0.046079
v 0.000979 -0.002047 -0.051012
v -0.006589 0.175711 -0.073225
v -0.013693 0.229857 -0.051820
v -0.004883 0.293878 -0.074579
v -0.017520 0.313401 -0.076089
v -0.015917 0.290121 -0.080588
v -0.064249 0.283180 -0.030941
v -0.051552 0.301635 -0.036709
v -0.080837 0.443972 -0.078386
v -0.035282 -0.003337 0.018718
v -0.036649 0.011861 0.028931
v -0.049449 0.013637 0.017639
v -0.038075 -0.009720 -0.014661
v -0.052304 0.006685 -0.016283
v -0.040394 -0.000405 -0.028273
v -0.001591 0.000534 0.015158
v 0.007919 0.020082 0.011560
v -0.001533 0.015628 0.025193
v -0.004385 -0.005849 -0.018221
v -0.006825 0.003338 -0.031559
v 0.005073 0.013274 -0.022449
v -0.048426 0.263899 -0.069820
v -0.078941 0.409457 -0.083229
v -0.086834 0.407638 -0.072059
v -0.061979 0.413648 -0.074533
v -0.036870 0.264890 -0.059217
v 0.056921 0.217058 -0.028831
v 0.062093 0.421378 -0.047729
v 0.037163 0.019072 0.030318
v 0.026063 0.298470 -0.018828
v 0.040808 0.300593 -0.014897
v 0.051642 0.453235 -0.056007
v -0.008423 0.002785 0.019246
v -0.011409 0.017632 0.029220
v -0.018532 0.021818 0.014193
v 0.000713 -0.002683 -0.013148
v -0.009329 0.015806 -0.018766
v 0.004788 0.006992 -0.025768
v 0.024294 0.001257 0.028731
v 0.022667 0.016288 0.039132
v 0.033430 -0.004211 -0.003662
v 0.037430 0.005524 -0.016568
v 0.046465 0.013171 -0.002581
v 0.049944 0.420264 -0.061872
v 0.037763 0.417349 -0.055196
v 0.031794 0.117503 -0.068352
v 0.014736 0.002667 -0.055523
v 0.032847 0.171846 -0.069372
v 0.031507 0.152300 -0.060097
v 0.039403 0.159759 -0.065039
v 0.026077 0.004918 -0.033109
v 0.030856 0.002156 -0.050936
v -0.048188 0.213311 0.050175
v -0.037759 0.195022 0.048065
v -0.045621 0.189233 0.040834
v -0.031380 0.009953 0.022895
v -0.049717 0.008135 0.022602
v -0.030804 0.011508 0.046865
v -0.043962 0.000254 -0.025561
v -0.107549 0.148222 -0.033022
v -0.041969 0.004075 -0.005865
v -0.117790 0.154141 -0.032326
v -0.108777 0.135193 -0.036937
v 0.015741 0.013909 0.023626
v 0.065712 0.197791 0.063829
v 0.031000 0.005217 0.029066
v 0.012819 0.006410 0.029065
v 0.009055 0.018563 0.028575
v 0.065467 0.217471 0.072941
v 0.072092 0.196602 0.071580
v 0.028222 0.005874 0.055168
v 0.036022 0.009095 0.035487
v 0.106298 0.178171 -0.007292
v 0.100818 0.202586 -0.008536
v 0.128797 0.308216 0.007128
v 0.041184 0.009118 -0.014195
v 0.036956 0.023244 -0.016178
v 0.045132 0.016531 -0.021572
v 0.073433 0.012843 -0.005154
v 0.065755 0.005903 -0.012442
v 0.124549 0.293625 0.012316
v 0.133912 0.283759 0.011469
v -0.005100 0.235265 0.082747
v -0.026251 0.203187 -0.055301
v -0.070102 0.183627 -0.044235
v 0.010303 0.192818 -0.038585
v 0.009571 0.006420 -0.037139
v -0.055180 0.013394 0.042377
v -0.055459 0.015585 0.026271
v -0.033946 0.005219 0.041806
v -0.050649 0.007208 0.045223
v -0.044449 0.150796 0.053877
v -0.057309 -0.002805 -0.004701
v -0.060091 -0.004778 -0.023562
v -0.096167 0.111594 -0.020882
v 0.005109 0.015084 0.045826
v 0.007342 0.007317 0.049175
v 0.024357 0.000525 0.048757
v 0.052016 0.155617 0.072625
v 0.105679 0.255204 0.004163
v 0.031461 0.019476 0.013249
v 0.108240 0.239196 0.018234
v -0.060576 0.195707 -0.058645
v 0.026455 0.206133 -0.047795
v 0.051221 0.264826 -0.048208
v 0.034907 0.010208 0.008127
v 0.060842 0.012164 0.022426
v 0.056399 0.004144 0.014466
vt 0.625000 0.314189
vt 0.625000 0.428007
vt 0.426159 0.447891
vt 0.625000 0.564113
vt 0.625000 0.618855
vt 0.427134 0.697889
vt 0.625000 0.182202
vt 0.625000 0.071877
vt 0.625000 0.116354
vt 0.625000 0.928138
vt 0.625000 0.822850
vt 0.625000 0.866354
vt 0.177111 0.697889
vt 0.177111 0.750000
vt 0.125000 0.697889
vt 0.177111 0.552111
vt 0.125000 0.552111
vt 0.177111 0.500000
vt 0.322889 0.697889
vt 0.375000 0.697889
vt 0.322889 0.750000
vt 0.322889 0.552111
vt 0.322889 0.500000
vt 0.375000 0.552111
vt 0.429254 0.802114
vt 0.428734 0.947886
vt 0.625000 0.250000
vt 0.625000 0.250000
vt 0.625000 0.115943
vt 0.625000 0.500000
vt 0.625000 0.500000
vt 0.625000 0.362769
vt 0.425838 0.302111
vt 0.426158 0.552111
vt 0.625000 0.378577
vt 0.428571 0.302260
vt 0.625000 0.368610
vt 0.426159 0.447891
vt 0.427280 0.697889
vt 0.625000 0.564630
vt 0.625000 0.617798
vt 0.177111 0.697889
vt 0.177111 0.750000
vt 0.125000 0.697889
vt 0.177111 0.552111
vt 0.125000 0.552111
vt 0.177111 0.500000
vt 0.322889 0.697889
vt 0.375000 0.697889
vt 0.322889 0.750000
vt 0.625000 0.250000
vt 0.625000 0.250000
vt 0.625000 0.115964
vt 0.625000 0.500000
vt 0.625000 0.500000
vt 0.426158 0.552111
vt 0.177111 0.697889
vt 0.177111 0.750000
vt 0.125000 0.697889
vt 0.177111 0.552111
vt 0.125000 0.552111
vt 0.177111 0.500000
vt 0.322889 0.697889
vt 0.375000 0.697889
vt 0.322889 0.750000
vt 0.426227 0.552111
vt 0.426068 0.447889
vt 0.625000 0.431967
vt 0.625000 0.840448
vt 0.429742 0.697660
vt 0.625000 0.613403
vt 0.625000 0.500000
vt 0.625000 0.500000
vt 0.625000 0.361177
vt 0.625000 0.376327
vt 0.428777 0.302269
vt 0.625000 0.630282
vt 0.625000 0.928095
vt 0.625000 0.822850
vt 0.625000 0.866354
vt 0.177111 0.697889
vt 0.177111 0.750000
vt 0.125000 0.697889
vt 0.177111 0.552111
vt 0.125000 0.552111
vt 0.177111 0.500000
vt 0.322889 0.697889
vt 0.375000 0.697889
vt 0.322889 0.750000
vt 0.322889 0.552111
vt 0.322889 0.500000
vt 0.375000 0.552111
vt 0.426227 0.552111
vt 0.425678 0.447889
vt 0.625000 0.430809
vt 0.625000 0.250000
vt 0.625000 0.250000
vt 0.625000 0.115257
vt 0.625000 0.500000
vt 0.625000 0.500000
vt 0.625000 0.361944
vt 0.625000 0.571011
vt 0.625000 0.564113
vt 0.625000 0.619057
vt 0.427134 0.697889
vt 0.625000 0.927666
vt 0.625000 0.822488
vt 0.625000 0.866354
vt 0.177111 0.697889
vt 0.177111 0.750000
vt 0.125000 0.697889
vt 0.177111 0.552111
vt 0.125000 0.552111
vt 0.177111 0.500000
vt 0.322889 0.697889
vt 0.375000 0.697889
vt 0.322889 0.750000
vt 0.322889 0.552111
vt 0.322889 0.500000
vt 0.375000 0.552111
vt 0.625000 0.250000
vt 0.625000 0.250000
vt 0.625000 0.115718
vt 0.625000 0.500000
vt 0.625000 0.500000
vt 0.625000 0.362769
vt 0.426158 0.552111
vt 0.625000 0.289505
vt 0.427232 0.259760
vt 0.625000 0.338174
vt 0.625000 0.750000
vt 0.625000 0.750000
vt 0.625000 0.615959
vt 0.385082 0.731615
vt 0.343131 0.521767
vt 0.625000 0.631205
vt 0.625000 0.500000
vt 0.625000 0.500000
vt 0.625000 0.366639
vt 0.426159 0.464247
vt 0.425838 0.302111
vt 0.625000 0.379626
vt 0.428482 0.760696
vt 0.625000 0.628835
vt 0.426097 0.466800
vt 0.625000 0.618855
vt 0.428476 0.787827
vt 0.625000 0.500000
vt 0.625000 0.500000
vt 0.625000 0.364389
vt 0.625000 0.372780
vt 0.625000 0.634092
vt 0.428454 0.302262
vt 0.625000 0.368937
vt 0.426531 0.447890
vt 0.177111 0.552111
vt 0.125000 0.552111
vt 0.177111 0.500000
vt 0.625000 0.500000
vt 0.625000 0.500000
vt 0.428327 0.760276
vt 0.426158 0.552111
vt 0.625000 0.628979
vt 0.625000 0.431963
vt 0.625000 0.322192
vt 0.625000 0.499356
vt 0.177111 0.552111
vt 0.125000 0.552111
vt 0.177111 0.500000
vt 0.426236 0.552111
vt 0.425838 0.447889
vt 0.625000 0.750000
vt 0.625000 0.750000
vt 0.625000 0.619207
vt 0.625000 0.633329
vt 0.427700 0.052113
vt 0.625000 0.072228
vt 0.426247 0.197889
vt 0.625000 0.883646
vt 0.427443 0.052112
vt 0.625000 0.129796
vt 0.430376 0.197689
vt 0.625000 0.000000
vt 0.625000 0.201952
vt 0.625000 0.883646
vt 0.625000 0.857465
vt 0.625000 0.633646
vt 0.427443 0.052112
vt 0.625000 0.072168
vt 0.430597 0.197675
vt 0.322889 0.519525
vt 0.625000 0.231997
vt 0.625000 0.883646
vt 0.427443 0.052112
vt 0.625000 0.129358
vt 0.625000 0.188113
vt 0.426247 0.197889
vt 0.625000 0.201953
vt 0.625000 0.000000
vt 0.625000 0.619511
vt 0.625000 0.883646
vt 0.427443 0.052112
vt 0.625000 0.129470
vt 0.625000 0.188238
vt 0.426247 0.197889
vt 0.625000 0.000000
vt 0.625000 0.208077
vt 0.625000 0.883646
vt 0.427443 0.052112
vt 0.625000 0.200145
vt 0.426103 0.468300
vt 0.625000 0.873453
vt 0.428443 0.963170
vt 0.625000 1.000000
vt 0.427700 0.052113
vt 0.625000 0.190901
vt 0.429198 0.197744
vt 0.625000 0.229348
vt 0.322889 0.697889
vt 0.177111 0.725946
vt 0.343598 0.729291
vt 0.625000 0.838718
vt 0.625000 0.614951
vt 0.625000 0.883646
vt 0.427700 0.052113
vt 0.625000 0.190080
vt 0.426415 0.274583
vt 0.428506 0.968439
vt 0.625000 0.781439
vt 0.625000 1.000000
vt 0.625000 0.883646
vt 0.427700 0.052113
vt 0.625000 0.187230
vt 0.430398 0.197688
vt 0.322889 0.518328
vt 0.177111 0.725842
vt 0.322889 0.697889
vt 0.343808 0.729081
vt 0.625000 0.792336
vt 0.625000 0.615146
vt 0.625000 0.883646
vt 0.426159 0.302109
vt 0.625000 0.371732
vt 0.426451 0.197888
vt 0.427742 0.052113
vt 0.322889 0.523967
vt 0.428599 0.965354
vt 0.625000 0.699098
vt 0.625000 1.000000
vt 0.625000 0.883646
vt 0.625000 1.000000
vt 0.427700 0.999997
vt 0.625000 0.000000
vt 0.625000 0.200655
vt 0.625000 0.133646
vt 0.625000 0.633646
vt 0.625000 0.382440
vt 0.428806 0.947886
vt 0.429019 0.802114
vt 0.322889 0.518015
vt 0.625000 1.000000
vt 0.427443 0.999999
vt 0.429122 0.947884
vt 0.428953 0.802114
vt 0.625000 1.000000
vt 0.427443 0.999999
vt 0.625000 0.192603
vt 0.625000 0.071808
vt 0.625000 0.000000
vt 0.427134 0.697889
vt 0.428701 0.802115
vt 0.429380 0.947885
vt 0.625000 0.313891
vt 0.426080 0.302111
vt 0.625000 0.377411
vt 0.625000 1.000000
vt 0.427443 0.999999
vt 0.625000 0.633646
vt 0.429259 0.802115
vt 0.428806 0.947886
vt 0.625000 0.314189
vt 0.425838 0.302111
vt 0.426068 0.447889
vt 0.625000 0.431320
vt 0.625000 0.378577
vt 0.625000 1.000000
vt 0.427443 0.999999
vt 0.625000 0.633646
vt 0.164998 0.534387
vt 0.336729 0.714752
vt 0.165498 0.725868
vt 0.625000 0.499356
vt 0.125000 0.697889
vt 0.125000 0.552111
vt 0.177111 0.527304
vt 0.428560 0.947886
vt 0.625000 1.000000
vt 0.427700 0.999997
vt 0.339096 0.523373
vt 0.341639 0.528793
vt 0.337205 0.732252
vt 0.164859 0.716702
vt 0.163358 0.523877
vt 0.625000 0.227839
vt 0.625000 0.382691
vt 0.625000 0.222655
vt 0.428831 0.947887
vt 0.125000 0.697889
vt 0.625000 1.000000
vt 0.427700 0.999997
vt 0.177111 0.697889
vt 0.159643 0.732532
vt 0.428392 0.768897
vt 0.322889 0.697889
vt 0.339497 0.733392
vt 0.625000 0.000000
vt 0.625000 0.000000
vt 0.625000 0.204190
vt 0.625000 0.349373
vn 0.0543 0.0333 -0.9980
vn 0.9964 0.0416 0.0740
vn -0.9968 0.0738 -0.0292
vn -0.0491 0.1069 0.9931
vn -0.7269 -0.4943 0.4767
vn -0.7342 -0.4780 -0.4822
vn 0.7277 -0.4961 0.4737
vn 0.7408 -0.4835 -0.4663
vn 0.0121 0.0369 0.9992
vn -0.6808 0.2608 -0.6845
vn 0.5380 0.2567 -0.8029
vn 0.0015 0.0258 -0.9997
vn 0.9995 0.0311 0.0008
vn -0.1099 0.0722 -0.9913
vn 0.6299 0.0458 -0.7753
vn 0.1438 0.0898 -0.9855
vn 0.9957 0.0347 0.0860
vn -0.7399 -0.5168 0.4306
vn -0.7251 -0.4633 -0.5094
vn 0.7141 -0.5225 0.4659
vn -0.6125 0.2676 -0.7438
vn 0.5073 0.3028 -0.8068
vn 0.9995 0.0279 0.0125
vn 0.4521 0.0954 -0.8869
vn -0.7137 -0.4272 0.5550
vn -0.7400 -0.5558 -0.3787
vn 0.7478 -0.4197 0.5145
vn 0.5912 -0.0752 -0.8030
vn 0.6477 0.1754 0.7414
vn 0.6464 0.1755 0.7426
vn 0.6454 0.1755 0.7434
vn 0.4152 0.2001 -0.8875
vn -0.2404 -0.0818 -0.9672
vn 0.8151 -0.0184 -0.5790
vn 0.0212 0.2850 0.9583
vn -0.6180 -0.4760 0.6257
vn -0.7004 -0.6390 -0.3179
vn 0.8250 -0.3150 0.4691
vn 0.7496 -0.4731 -0.4630
vn 0.6168 -0.0171 -0.7869
vn -0.8189 0.0354 -0.5729
vn 0.4218 0.1487 -0.8944
vn 0.6758 0.0050 -0.7370
vn 0.9405 0.0076 0.3396
vn -0.2840 0.2681 0.9206
vn -0.8719 -0.3816 0.3070
vn -0.6169 -0.5157 -0.5946
vn 0.5261 -0.4446 0.7249
vn 0.7907 -0.5809 -0.1931
vn -0.5052 0.1763 -0.8448
vn 0.7533 0.0774 -0.6532
vn 0.9615 -0.0140 0.2744
vn -0.5841 -0.0039 -0.8117
vn 0.1699 0.4129 0.8948
vn 0.9644 -0.0288 0.2630
vn 0.4724 0.3621 -0.8035
vn 0.0060 0.1000 -0.9950
vn 0.9989 0.0380 -0.0265
vn 0.6193 0.1267 -0.7748
vn 0.9090 0.3823 -0.1661
vn 0.0958 0.2782 -0.9557
vn 0.5459 0.1935 -0.8152
vn 0.3827 0.0969 -0.9188
vn -0.6795 -0.2384 -0.6938
vn 0.7618 0.2799 -0.5841
vn 0.9156 -0.2385 0.3238
vn 0.7701 -0.0237 -0.6375
vn 0.3768 0.0374 -0.9255
vn -0.6840 -0.2982 -0.6657
vn 0.7510 -0.1576 -0.6412
vn 0.3263 0.2309 0.9166
vn 0.9327 -0.1894 -0.3070
vn -0.9986 0.0370 0.0367
vn -0.6298 0.0791 -0.7727
vn 0.7021 0.0390 -0.7110
vn -0.9995 0.0329 0.0013
vn 0.2747 0.1209 0.9539
vn -0.7858 0.0953 -0.6111
vn -0.9978 0.0444 0.0489
vn 0.6494 0.0759 -0.7566
vn -0.5189 0.0736 0.8517
vn 0.2568 0.0805 0.9631
vn 0.6754 0.1151 -0.7284
vn 0.9956 0.0394 -0.0853
vn -0.9958 0.0399 0.0825
vn -0.0896 -0.7735 -0.6275
vn -0.9570 0.0212 -0.2894
vn 0.3209 0.2777 0.9055
vn 0.4827 -0.0170 -0.8756
vn -0.9803 -0.0495 0.1913
vn -0.9914 -0.0838 0.1006
vn -0.4009 0.2210 0.8891
vn 0.3494 0.3288 0.8774
vn -0.9756 0.1051 -0.1926
vn -0.9569 0.0747 -0.2808
vn -0.6737 0.2760 0.6856
vn 0.0229 0.2585 0.9657
vn -0.9554 0.0790 -0.2845
vn 0.2665 -0.1460 -0.9527
vn 0.4201 0.1485 0.8953
vn -0.9522 0.1818 0.2456
vn -0.9992 0.0341 0.0219
vn -0.4406 0.0998 -0.8921
vn -0.8775 0.0892 -0.4712
vn 0.8920 -0.4520 0.0079
vn 0.0778 -0.6482 0.7575
vn 0.5891 0.0170 0.8078
vn 0.3227 0.0752 0.9435
vn -0.9291 -0.3279 0.1713
vn -0.0840 -0.1237 -0.9888
vn -0.6008 -0.0918 0.7941
vn 0.2791 0.3791 0.8822
vn -0.9409 0.3013 -0.1545
vn 0.7981 -0.0378 -0.6014
vn -0.0378 -0.5770 -0.8159
vn -0.2481 -0.6650 0.7044
vn 0.3889 -0.1674 0.9059
vn 0.1116 -0.0293 0.9933
vn 0.2251 0.0009 -0.9743
vn -0.9461 0.2925 -0.1392
vn -0.0396 -0.6942 -0.7187
vn 0.3775 -0.0612 -0.9240
vn -0.8355 0.2813 0.4720
vn 0.1537 0.0612 0.9862
vn -0.7076 0.0403 -0.7055
vn -0.8383 -0.5452 0.0055
vn 0.0011 -0.7008 -0.7133
vn 0.8359 -0.5489 0.0032
vn 0.0032 -0.6972 0.7169
vn 0.7358 0.0537 0.6751
vn -0.7010 0.0500 0.7114
vn -0.6303 0.0995 0.7699
vn 0.6632 0.0922 -0.7428
vn 0.0000 -1.0000 -0.0000
vn -0.6821 0.1035 -0.7239
vn -0.0117 -0.0185 0.9998
vn -0.8449 -0.5335 -0.0387
vn 0.8083 -0.5868 -0.0486
vn -0.0611 -0.6500 -0.7575
vn -0.0087 -0.7342 0.6789
vn 0.6273 0.0166 0.7786
vn -0.7152 0.0263 0.6984
vn 0.0750 -0.9890 -0.1273
vn -0.7933 -0.0253 -0.6083
vn 0.0235 0.1742 0.9844
vn -0.8378 -0.5374 0.0967
vn 0.8155 -0.5779 0.0331
vn 0.0992 -0.1192 -0.9879
vn 0.0233 -0.5874 0.8089
vn -0.6252 0.1579 0.7643
vn 0.6486 0.1754 0.7406
vn 0.0813 -0.9945 0.0657
vn -0.6199 0.1926 0.7607
vn 0.9837 0.1523 -0.0958
vn 0.0887 0.2244 0.9705
vn -0.7476 -0.1762 -0.6403
vn -0.7832 -0.1354 -0.6069
vn -0.7556 -0.6276 0.1878
vn 0.0349 -0.8210 -0.5698
vn -0.0649 -0.1569 -0.9855
vn 0.8986 -0.4386 0.0106
vn 0.1480 -0.5452 0.8252
vn 0.7719 0.2623 0.5791
vn -0.1804 -0.1277 -0.9753
vn -0.7190 0.0848 0.6898
vn 0.5573 0.0243 -0.8300
vn 0.1307 -0.9757 0.1757
vn -0.2704 0.1968 0.9424
vn -0.4662 -0.0471 -0.8834
vn 0.8548 -0.1082 -0.5076
vn -0.4871 -0.0045 -0.8733
vn -0.8523 -0.5007 -0.1512
vn 0.1272 -0.8085 -0.5746
vn 0.2781 -0.1329 -0.9513
vn 0.7533 -0.5782 0.3134
vn -0.2514 -0.5715 0.7811
vn 0.5333 0.1274 0.8363
vn 0.1841 -0.0846 -0.9793
vn -0.9064 0.1911 0.3768
vn 0.8461 -0.0571 -0.5300
vn -0.0872 -0.9860 0.1419
vn -0.1002 -0.9837 0.1495
vn -0.2174 0.1836 0.9587
vn 0.7964 -0.0966 -0.5970
vn 0.5173 -0.0261 -0.8554
vn -0.7990 -0.5982 -0.0616
vn -0.0701 -0.0570 0.9959
vn -0.6697 -0.0098 0.7426
vn -0.0170 -0.9905 -0.1364
vn 0.3607 -0.9278 0.0948
vn 0.0107 0.1436 0.9896
vn -0.8805 -0.3380 -0.3325
vn 0.6412 0.4135 0.6464
vn -0.5078 0.3180 -0.8006
vn -0.2795 -0.0672 0.9578
vn -0.9121 -0.3232 -0.2523
vn 0.6531 -0.7521 0.0884
vn -0.7954 0.1537 0.5862
vn -0.2202 -0.9625 -0.1586
vn -0.9340 -0.2760 -0.2268
vn 0.8888 -0.2230 0.4003
vn -0.2800 0.0761 0.9570
vn 0.6342 -0.7405 0.2223
vn -0.3725 -0.5463 0.7503
vn -0.5238 0.2216 -0.8225
vn 0.3407 -0.0538 0.9386
vn -0.8410 0.3206 0.4357
vn -0.1848 -0.9801 -0.0720
vn -0.4599 0.2482 -0.8526
vn 0.6023 -0.0157 -0.7981
usemtl Coral
s 1
f 1/1/1 2/2/1 3/3/1
f 4/4/2 5/5/2 6/6/2
f 7/7/3 8/8/3 9/9/3
f 10/10/4 11/11/4 12/12/4
f 13/13/5 14/14/5 15/15/5
f 16/16/6 17/17/6 18/18/6
f 19/19/7 6/20/7 20/21/7
f 21/22/8 3/23/8 22/24/8
f 20/25/9 11/11/9 10/10/9 14/26/9
f 12/27/10 23/28/10 9/29/10
f 12/30/11 5/31/11 23/32/11
f 3/3/12 18/33/12 1/1/12
f 6/6/13 22/34/13 4/4/13
f 2/2/14 1/1/14 23/35/14
f 2/2/15 4/4/15 3/3/15
f 24/36/16 25/37/16 26/38/16
f 27/39/17 28/40/17 29/41/17
f 30/42/18 31/43/18 32/44/18
f 33/45/19 34/46/19 24/47/19
f 35/48/20 27/49/20 36/50/20
f 37/51/21 25/52/21 38/53/21
f 37/54/22 29/55/22 25/37/22
f 27/39/23 39/56/23 28/40/23
f 25/37/24 28/40/24 26/38/24
f 40/57/25 41/58/25 42/59/25
f 43/60/26 44/61/26 45/62/26
f 46/63/27 47/64/27 48/65/27
f 49/66/28 50/67/28 51/68/28
f 52/69/29 47/70/30 53/71/31
f 54/72/32 53/73/32 55/74/32
f 55/75/33 51/68/33 45/76/33
f 51/68/34 53/77/34 49/66/34
f 56/78/35 57/79/35 58/80/35
f 59/81/36 60/82/36 61/83/36
f 62/84/37 63/85/37 64/86/37
f 65/87/38 66/88/38 67/89/38
f 68/90/39 69/91/39 70/92/39
f 70/93/40 69/94/40 71/95/40
f 58/96/41 72/97/41 73/98/41
f 58/99/42 74/100/42 72/101/42
f 71/95/43 75/102/43 70/93/43
f 76/103/44 77/104/44 78/105/44
f 79/106/45 80/107/45 81/108/45
f 82/109/46 83/110/46 84/111/46
f 85/112/47 86/113/47 87/114/47
f 88/115/48 78/116/48 89/117/48
f 90/118/49 91/119/49 92/120/49
f 81/121/50 93/122/50 94/123/50
f 81/124/51 77/125/51 93/126/51
f 78/105/52 92/127/52 76/103/52
f 95/128/53 96/129/53 97/130/53
f 97/131/54 98/132/54 99/133/54
f 100/134/55 101/135/55 99/136/55
f 102/137/56 103/138/56 104/139/56
f 105/140/57 106/141/57 104/142/57
f 107/143/58 105/140/58 103/144/58
f 104/139/59 103/144/59 105/140/59
f 108/145/60 109/146/60 110/147/60
f 111/148/61 109/149/61 112/150/61
f 112/151/62 109/152/62 108/145/62
f 113/153/63 114/154/63 115/155/63
f 116/156/64 117/157/64 113/158/64
f 118/159/65 119/160/65 114/154/65
f 120/161/66 121/162/66 119/163/66
f 114/154/67 119/163/67 115/155/67
f 122/164/68 123/165/68 124/166/68
f 125/167/69 126/168/69 127/169/69
f 128/170/70 129/171/70 122/164/70
f 124/172/71 130/173/71 131/174/71
f 122/164/72 131/175/72 128/170/72
f 15/176/73 8/177/73 7/7/73
f 1/1/74 7/7/74 23/35/74
f 4/4/75 22/34/75 3/3/75
f 15/176/76 7/7/76 17/178/76
f 5/5/77 12/179/77 11/11/77
f 7/7/78 9/9/78 23/35/78
f 32/180/79 38/181/79 34/182/79
f 28/40/80 39/56/80 26/38/80
f 38/181/81 132/183/81 37/184/81
f 29/41/82 37/185/82 132/186/82
f 25/37/83 29/187/83 28/40/83
f 47/70/84 49/66/84 53/77/84
f 42/188/85 133/189/85 44/190/85
f 50/191/86 43/60/86 45/62/86
f 54/192/87 44/190/87 133/189/87
f 53/71/88 54/193/88 52/69/88
f 55/74/89 53/77/89 51/68/89
f 61/194/90 73/195/90 134/196/90
f 61/194/91 134/196/91 63/197/91
f 58/198/92 73/195/92 56/199/92
f 74/200/93 58/201/93 57/79/93
f 84/202/94 94/203/94 135/204/94
f 84/202/95 135/204/95 86/205/95
f 94/203/96 79/206/96 81/207/96
f 77/104/97 81/208/97 80/107/97
f 136/209/98 97/210/98 96/129/98
f 95/128/99 101/211/99 96/129/99
f 98/212/100 100/134/100 99/133/100
f 136/213/101 98/212/101 97/214/101
f 137/215/102 102/216/102 138/217/102
f 106/141/103 138/217/103 104/142/103
f 102/218/104 104/142/104 138/217/104
f 139/219/105 105/140/105 107/143/105
f 140/220/106 139/219/106 107/221/106
f 141/222/107 107/143/107 103/223/107
f 103/223/108 102/224/108 141/222/108
f 142/225/109 111/226/109 143/227/109
f 112/151/110 108/145/110 143/227/110
f 142/228/111 144/229/111 111/230/111
f 109/146/112 111/231/112 144/229/112
f 145/232/113 118/233/113 117/234/113
f 119/163/114 121/162/114 115/155/114
f 113/158/115 115/235/115 116/156/115
f 146/236/116 147/237/116 120/238/116
f 148/239/117 120/161/117 119/240/117
f 119/240/118 118/241/118 148/239/118
f 122/164/119 127/242/119 123/165/119
f 149/243/120 126/244/120 150/245/120
f 129/246/121 125/167/121 127/169/121
f 127/242/122 122/164/122 129/171/122
f 150/247/123 151/248/123 149/249/123
f 131/174/124 130/250/124 151/248/124
f 7/7/125 1/1/125 18/33/125 17/178/125
f 13/13/126 15/15/126 17/17/126 16/16/126
f 18/18/127 3/23/127 21/22/127 16/16/127
f 22/34/128 6/6/128 19/19/128 21/22/128
f 19/19/129 20/21/129 14/14/129 13/13/129
f 20/25/130 6/6/130 5/5/130 11/11/130
f 10/10/131 8/251/131 15/252/131 14/26/131
f 8/8/132 10/253/132 12/254/132 9/255/132
f 5/256/133 4/4/133 2/2/133 23/32/133
f 19/19/134 13/13/134 16/16/134 21/22/134
f 25/257/135 24/36/135 34/182/135 38/53/135
f 132/186/136 31/258/136 36/259/136
f 30/42/137 32/44/137 34/46/137 33/45/137
f 39/56/138 27/39/138 35/48/138 26/260/138
f 26/260/139 33/45/139 24/47/139
f 36/50/140 31/43/140 30/42/140 35/48/140
f 36/259/141 27/39/141 29/41/141 132/186/141
f 132/186/142 38/261/142 32/262/142 31/258/142
f 35/48/143 30/42/143 33/45/143 26/260/143
f 55/75/144 45/76/144 44/190/144 54/192/144
f 52/69/145 41/263/145 48/264/145
f 40/57/146 42/59/146 44/61/146 43/60/146
f 49/66/147 47/70/147 46/63/147 50/191/147
f 45/76/148 51/68/148 50/67/148
f 40/57/149 46/63/149 48/65/149 41/58/149
f 52/69/150 133/265/150 42/266/150 41/263/150
f 47/70/30 52/69/29 48/264/151
f 46/63/152 40/57/152 43/60/152 50/191/152
f 54/267/153 133/268/153 52/269/153
f 70/93/154 75/102/154 74/200/154 66/270/154
f 67/271/155 57/79/155 56/78/155 60/272/155
f 134/196/156 152/273/156 64/274/156 63/197/156
f 152/273/157 134/196/157 73/98/157 72/275/157
f 59/81/158 61/83/158 63/85/158 62/84/158
f 64/86/159 69/91/159 68/90/159 62/84/159
f 71/95/160 69/94/160 64/274/160 152/273/160
f 70/93/161 66/270/161 65/87/161 68/90/161
f 59/81/162 65/87/162 67/89/162 60/82/162
f 67/271/163 66/270/163 74/200/163 57/79/163
f 152/273/164 72/275/164 71/95/164
f 56/78/165 73/276/165 61/277/165 60/272/165
f 74/278/166 75/102/166 71/95/166 72/101/166
f 62/84/167 68/90/167 65/87/167 59/81/167
f 89/279/168 80/107/168 79/106/168 83/280/168
f 135/204/169 153/281/169 87/282/169 86/205/169
f 92/127/170 91/283/170 154/284/170 76/103/170
f 94/123/171 93/285/171 153/281/171 135/204/171
f 82/109/172 84/111/172 86/113/172 85/112/172
f 85/112/173 87/114/173 91/119/173 90/118/173
f 154/284/174 91/283/174 87/282/174 153/281/174
f 92/127/175 78/105/175 88/115/175 90/118/175
f 88/115/176 89/117/176 83/110/176 82/109/176
f 89/279/177 78/105/177 77/104/177 80/107/177
f 153/281/178 93/285/178 154/284/178
f 79/106/179 94/286/179 84/287/179 83/280/179
f 77/288/180 76/103/180 154/284/180 93/126/180
f 88/115/181 82/109/181 85/112/181 90/118/181
f 96/289/182 101/135/182 100/290/182 136/291/182
f 136/213/183 100/134/183 98/212/183
f 101/211/184 95/128/184 99/136/184
f 95/128/185 97/292/185 99/136/185
f 140/220/186 137/293/186 138/294/186 106/295/186
f 141/222/187 140/296/187 107/143/187
f 141/222/188 102/297/188 137/298/188 140/296/188
f 139/219/189 140/220/189 106/295/189 105/299/189
f 108/300/190 110/301/190 142/302/190 143/303/190
f 144/229/191 142/228/191 110/147/191
f 112/151/192 143/227/192 111/304/192
f 110/147/193 109/146/193 144/229/193
f 114/305/194 113/153/194 117/234/194 118/306/194
f 148/239/195 146/307/195 120/161/195
f 146/236/196 145/308/196 117/157/196 116/156/196
f 121/162/197 120/161/197 147/237/197 115/235/197
f 148/239/198 118/309/198 145/310/198 146/307/198
f 116/156/199 115/235/199 147/237/199 146/236/199
f 155/311/200 150/312/200 126/168/200 125/167/200
f 131/174/201 156/313/201 128/170/201
f 151/248/202 150/247/202 156/313/202
f 157/314/203 129/246/203 128/170/203 156/313/203
f 157/314/204 156/315/204 150/312/204 155/311/204
f 123/165/205 127/242/205 126/244/205 149/243/205
f 131/174/206 151/248/206 156/313/206
f 151/316/207 130/317/207 124/318/207 149/243/207
f 125/167/208 129/246/208 157/314/208 155/311/208
f 123/165/209 149/243/209 124/319/209
f 122/164/210 124/166/210 131/175/210
