# Blender v2.81 (sub 16) OBJ File: ''
# www.blender.org
mtllib StarFish.mtl
o Starfish_StarfishMesh
v -0.003834 -0.000768 -0.173513
v 0.007594 -0.000014 -0.153771
v 0.026303 0.007590 -0.122012
v 0.012891 0.013988 -0.100511
v 0.045620 0.008632 -0.061052
v 0.024410 0.016770 -0.033639
v 0.033380 0.002073 -0.130079
v 0.055495 -0.000329 -0.073138
v -0.002848 -0.003774 -0.187581
v 0.010509 -0.003165 -0.167293
v 0.030806 0.001035 -0.039679
v 0.000135 0.002508 -0.000648
v 0.000000 0.012928 0.000148
v 0.013312 -0.009903 -0.170805
v 0.035059 -0.010052 -0.130294
v 0.031915 -0.010670 -0.042573
v -0.001068 -0.012344 -0.003610
v -0.002575 -0.010628 -0.193776
v 0.057427 -0.009806 -0.076291
v -0.008408 -0.010229 -0.199482
v -0.007977 -0.004656 -0.192221
v -0.007145 -0.001208 -0.178203
v 0.000074 0.016304 -0.087840
v -0.151552 -0.000088 -0.064633
v -0.130945 0.000552 -0.065218
v -0.099487 0.007783 -0.066641
v -0.085771 0.013969 -0.045928
v -0.044161 0.008410 -0.065167
v -0.023666 0.016625 -0.036138
v -0.103934 0.002314 -0.076386
v -0.053482 -0.000578 -0.078113
v -0.163699 -0.003091 -0.071683
v -0.141236 -0.002536 -0.074139
v -0.143515 -0.009283 -0.078021
v -0.103398 -0.009796 -0.078031
v -0.030521 -0.010957 -0.047573
v -0.029374 0.000695 -0.045919
v -0.169165 -0.009946 -0.074612
v -0.055499 -0.010039 -0.080896
v -0.176834 -0.009547 -0.071825
v -0.170101 -0.003973 -0.069074
v -0.157106 -0.000525 -0.063750
v -0.078228 0.016152 -0.029574
v -0.099501 -0.000089 0.132005
v -0.096011 0.000586 0.111082
v -0.093060 0.008071 0.074744
v -0.076185 0.012173 0.060643
v -0.072920 0.008844 0.019796
v -0.039665 0.016872 0.011539
v -0.103306 0.002573 0.076562
v -0.088040 -0.000078 0.023382
v -0.109234 -0.003092 0.142130
v -0.106285 -0.002537 0.119727
v -0.049127 0.001164 0.013395
v -0.110597 -0.009284 0.121018
v -0.104615 -0.009547 0.075703
v -0.051197 -0.010531 0.013561
v -0.113378 -0.009947 0.146744
v -0.091424 -0.009547 0.024254
v -0.112496 -0.009548 0.154853
v -0.108220 -0.003974 0.148968
v -0.099965 -0.000526 0.137608
v -0.051667 0.015385 0.061242
v 0.086107 -0.004518 0.112586
v 0.068351 -0.003578 0.103799
v 0.040903 0.005520 0.096990
v 0.042459 0.012809 0.077245
v -0.001896 0.007924 0.070887
v -0.001035 0.016460 0.039241
v 0.038905 -0.000222 0.106228
v -0.002473 -0.001243 0.085145
v 0.092683 -0.007521 0.124996
v 0.072323 -0.006966 0.115193
v -0.001447 0.000484 0.047492
v 0.072202 -0.013713 0.119692
v 0.037488 -0.012374 0.107135
v 0.095771 -0.014375 0.130374
v -0.002469 -0.010760 0.088390
v 0.103720 -0.013961 0.132192
v 0.099496 -0.008403 0.126169
v -0.002351 -0.011691 0.046761
v 0.091287 -0.004955 0.114775
v 0.041995 0.013256 0.050907
v 0.159163 -0.000144 -0.031745
v 0.142149 0.000237 -0.021424
v 0.114260 0.006074 -0.013231
v 0.090097 0.011765 -0.026780
v 0.065716 0.005747 0.008344
v 0.036048 0.015088 0.003491
v 0.123698 0.000717 -0.006801
v 0.079400 -0.003602 0.011570
v 0.173156 -0.003147 -0.032953
v 0.156181 -0.002592 -0.018037
v 0.042450 -0.002051 -0.000599
v 0.160276 -0.009339 -0.016169
v 0.124404 -0.011287 -0.004391
v 0.044301 -0.013743 -0.000215
v 0.179313 -0.010001 -0.033696
v 0.082890 -0.012996 0.012962
v 0.183990 -0.009602 -0.040378
v 0.176897 -0.004029 -0.038766
v 0.163203 -0.000581 -0.035654
v 0.075037 0.014123 -0.035434
v -0.009776 -0.000771 -0.173232
v -0.013456 0.013973 -0.100427
v -0.029077 0.007565 -0.121080
v -0.016401 -0.000033 -0.153007
v -0.036815 0.002051 -0.128602
v -0.012520 -0.003774 -0.187007
v -0.021379 -0.003189 -0.166133
v -0.024024 -0.009926 -0.169438
v -0.038628 -0.010075 -0.128669
v -0.013525 -0.010628 -0.193126
v 0.157869 -0.000144 -0.037438
v 0.087696 0.014136 -0.041633
v 0.103658 0.007894 -0.056625
v 0.137363 0.000508 -0.043047
v 0.109203 0.002403 -0.065238
v 0.171010 -0.003147 -0.042396
v 0.149256 -0.002592 -0.048510
v 0.152141 -0.009339 -0.051965
v 0.108850 -0.009710 -0.066765
v 0.176883 -0.010001 -0.044388
v 0.090843 -0.004518 0.109171
v 0.059396 0.010830 0.052394
v 0.082526 0.004249 0.058966
v 0.086886 -0.003758 0.089295
v 0.092835 -0.001324 0.060472
v 0.100539 -0.007521 0.119332
v 0.097597 -0.006900 0.097420
v 0.101842 -0.013595 0.099128
v 0.094458 -0.013409 0.059589
v 0.104651 -0.014367 0.124027
v -0.094777 -0.000089 0.135437
v -0.047849 0.013299 0.079712
v -0.047493 0.007294 0.106157
v -0.076584 0.000547 0.125141
v -0.045903 0.001833 0.116862
v -0.101400 -0.003092 0.147823
v -0.081003 -0.002537 0.138096
v -0.080899 -0.009284 0.142596
v -0.044487 -0.010262 0.118072
v -0.104508 -0.009947 0.153189
v -0.153764 -0.000088 -0.059229
v -0.094001 0.014401 -0.022327
v -0.117914 0.008072 -0.016769
v -0.139686 0.000587 -0.043676
v -0.127700 0.002574 -0.012824
v -0.167368 -0.003091 -0.062720
v -0.153124 -0.002536 -0.045030
v -0.157504 -0.009283 -0.043711
v -0.128413 -0.009547 -0.011167
v -0.173339 -0.009946 -0.064404
v 0.020019 -0.011067 -0.101328
v 0.000459 -0.012327 -0.064635
v -0.083273 -0.010961 -0.052863
v -0.055831 -0.012390 -0.022634
v -0.075610 -0.010596 0.062349
v -0.038330 -0.012079 0.046072
v 0.035741 -0.012572 0.079422
v 0.030420 -0.014540 0.035384
v 0.092234 -0.013143 -0.019804
v 0.051536 -0.015136 -0.034695
v -0.021580 -0.011115 -0.101138
v 0.085700 -0.010779 -0.045876
v 0.065804 -0.014258 0.046878
v -0.041480 -0.011532 0.084763
v -0.096513 -0.010596 -0.015557
vt 0.558811 0.000000
vt 0.558811 1.000000
vt 1.000000 1.000000
vt 1.000000 0.000000
vt 0.558810 1.000000
vt 1.000000 1.000000
vt 1.000000 1.000000
vt 1.000000 1.000000
vt 0.558810 0.000000
vt 1.000000 0.000000
vt 0.558810 1.000000
vt 0.000000 1.000000
vt 0.000000 1.000000
vt 1.000000 0.000000
vt 1.000000 1.000000
vt 0.558810 1.000000
vt 0.000000 1.000000
vt 0.558811 0.000000
vt 1.000000 1.000000
vt 0.000000 0.000000
vt 0.000000 0.000000
vt 0.000000 0.000000
vt 0.000000 1.000000
vt 0.558811 0.000000
vt 0.558811 1.000000
vt 1.000000 1.000000
vt 1.000000 0.000000
vt 0.558810 1.000000
vt 1.000000 1.000000
vt 1.000000 1.000000
vt 1.000000 1.000000
vt 0.558810 0.000000
vt 1.000000 0.000000
vt 1.000000 0.000000
vt 1.000000 1.000000
vt 0.558810 1.000000
vt 0.558810 1.000000
vt 0.558811 0.000000
vt 1.000000 1.000000
vt 0.000000 0.000000
vt 0.000000 0.000000
vt 0.000000 0.000000
vt 0.000000 1.000000
vt 0.558811 0.000000
vt 0.558811 1.000000
vt 1.000000 1.000000
vt 1.000000 0.000000
vt 0.558810 1.000000
vt 1.000000 1.000000
vt 1.000000 1.000000
vt 1.000000 1.000000
vt 0.558810 0.000000
vt 1.000000 0.000000
vt 0.558810 1.000000
vt 1.000000 0.000000
vt 1.000000 1.000000
vt 0.558810 1.000000
vt 0.558811 0.000000
vt 1.000000 1.000000
vt 0.000000 0.000000
vt 0.000000 0.000000
vt 0.000000 0.000000
vt 0.000000 1.000000
vt 0.558811 0.000000
vt 0.558811 1.000000
vt 1.000000 1.000000
vt 1.000000 0.000000
vt 0.558810 1.000000
vt 1.000000 1.000000
vt 1.000000 1.000000
vt 1.000000 1.000000
vt 0.558810 0.000000
vt 1.000000 0.000000
vt 0.558810 1.000000
vt 1.000000 0.000000
vt 1.000000 1.000000
vt 0.558811 0.000000
vt 1.000000 1.000000
vt 0.000000 0.000000
vt 0.000000 0.000000
vt 0.558810 1.000000
vt 0.000000 0.000000
vt 0.000000 1.000000
vt 0.558811 0.000000
vt 0.558811 1.000000
vt 1.000000 1.000000
vt 1.000000 0.000000
vt 0.558810 1.000000
vt 1.000000 1.000000
vt 1.000000 1.000000
vt 1.000000 1.000000
vt 0.558810 0.000000
vt 1.000000 0.000000
vt 0.558810 1.000000
vt 1.000000 0.000000
vt 1.000000 1.000000
vt 0.558810 1.000000
vt 0.558811 0.000000
vt 1.000000 1.000000
vt 0.000000 0.000000
vt 0.000000 0.000000
vt 0.000000 0.000000
vt 0.000000 1.000000
vt 0.558811 0.000000
vt 1.000000 0.000000
vt 1.000000 1.000000
vt 0.558811 1.000000
vt 1.000000 1.000000
vt 0.558810 0.000000
vt 1.000000 0.000000
vt 1.000000 0.000000
vt 1.000000 1.000000
vt 0.558811 0.000000
vt 0.558811 0.000000
vt 1.000000 0.000000
vt 1.000000 1.000000
vt 0.558811 1.000000
vt 1.000000 1.000000
vt 0.558810 0.000000
vt 1.000000 0.000000
vt 1.000000 0.000000
vt 1.000000 1.000000
vt 0.558811 0.000000
vt 0.558811 0.000000
vt 1.000000 0.000000
vt 1.000000 1.000000
vt 0.558811 1.000000
vt 1.000000 1.000000
vt 0.558810 0.000000
vt 1.000000 0.000000
vt 1.000000 0.000000
vt 1.000000 1.000000
vt 0.558811 0.000000
vt 0.558811 0.000000
vt 1.000000 0.000000
vt 1.000000 1.000000
vt 0.558811 1.000000
vt 1.000000 1.000000
vt 0.558810 0.000000
vt 1.000000 0.000000
vt 1.000000 0.000000
vt 1.000000 1.000000
vt 0.558811 0.000000
vt 0.558811 0.000000
vt 1.000000 0.000000
vt 1.000000 1.000000
vt 0.558811 1.000000
vt 1.000000 1.000000
vt 0.558810 0.000000
vt 1.000000 0.000000
vt 1.000000 0.000000
vt 1.000000 1.000000
vt 0.558811 0.000000
vt 0.558811 1.000000
vt 0.000000 1.000000
vt 0.558811 1.000000
vt 0.000000 1.000000
vt 0.558811 1.000000
vt 0.000000 1.000000
vt 0.558811 1.000000
vt 0.000000 1.000000
vt 0.558811 1.000000
vt 0.000000 1.000000
vt 0.558811 1.000000
vt 0.558811 1.000000
vt 0.558811 1.000000
vt 0.558811 1.000000
vt 0.558811 1.000000
vn 0.1954 0.9435 -0.2675
vn 0.2699 0.9583 -0.0938
vn 0.5143 0.8403 -0.1711
vn 0.2374 0.9547 -0.1795
vn 0.7962 0.0411 0.6036
vn 0.1896 0.9384 -0.2890
vn 0.8211 0.2920 -0.4905
vn 0.7672 -0.1407 0.6258
vn 0.7047 0.5110 -0.4922
vn 0.9092 0.2082 -0.3605
vn 0.5219 0.6236 -0.5820
vn 0.7996 -0.0559 0.5979
vn 0.8019 0.0955 0.5898
vn 0.0939 0.9704 -0.2225
vn -0.0331 0.9994 0.0063
vn 0.0170 0.9804 -0.1961
vn -0.1539 0.9429 -0.2953
vn -0.0002 0.9606 -0.2780
vn 0.0167 0.8386 -0.5444
vn -0.0474 0.9537 -0.2971
vn -0.1806 0.9403 -0.2885
vn -0.0439 0.2847 -0.9576
vn 0.8341 0.0220 -0.5512
vn -0.1174 0.4973 -0.8596
vn -0.0392 0.2035 -0.9783
vn -0.2986 0.6233 -0.7227
vn 0.8003 0.0061 -0.5996
vn 0.8027 0.0573 -0.5937
vn -0.1599 0.9704 -0.1810
vn -0.0049 0.9995 0.0316
vn -0.1795 0.9806 -0.0793
vn -0.1795 0.9806 -0.0794
vn -0.1796 0.9806 -0.0786
vn -0.2953 0.9499 0.1022
vn -0.2759 0.9560 -0.1000
vn -0.5150 0.8374 -0.1832
vn -0.3089 0.9509 -0.0189
vn -0.2729 0.0585 -0.9603
vn -0.3301 0.9358 0.1236
vn -0.9557 0.2829 -0.0813
vn -0.2963 0.1361 -0.9454
vn -0.8629 0.4973 -0.0901
vn -0.9432 0.2049 -0.2617
vn -0.7729 0.6234 0.1182
vn -0.2528 0.0177 -0.9673
vn -0.2491 0.0348 -0.9678
vn -0.2138 0.9704 0.1123
vn 0.0171 0.9993 0.0340
vn 0.0118 0.8560 0.5168
vn -0.1452 0.9475 0.2849
vn -0.2644 0.8272 0.4959
vn -0.1107 0.9465 0.3032
vn -0.9995 0.0020 -0.0300
vn 0.1360 0.9107 0.3900
vn -0.2578 0.2851 0.9232
vn -0.3553 0.4973 0.7915
vn -0.4300 0.1969 0.8811
vn -0.1358 0.6256 0.7682
vn -0.9991 0.0398 -0.0140
vn -0.9995 0.0172 -0.0247
vn 0.0400 0.9704 0.2382
vn 0.0866 0.9952 -0.0462
vn 0.3008 0.9518 0.0591
vn 0.1983 0.9677 0.1559
vn 0.1686 0.9454 0.2790
vn 0.2258 0.7573 0.6128
vn 0.1834 0.9601 0.2113
vn -0.0482 -0.1854 0.9815
vn 0.2235 0.9418 0.2511
vn 0.3108 0.2864 0.9063
vn -0.0457 -0.0977 0.9942
vn 0.5899 0.4973 0.6362
vn 0.3600 0.2312 0.9038
vn 0.6594 0.6234 0.4201
vn -0.3181 -0.0007 0.9481
vn -0.2770 -0.2404 0.9303
vn 0.2349 0.9704 0.0563
vn 0.0078 0.9998 -0.0169
vn 0.1670 0.9859 0.0043
vn -0.2356 0.9423 -0.2378
vn -0.2713 0.9587 -0.0850
vn -0.5338 0.8330 -0.1453
vn -0.2815 0.9498 -0.1366
vn -0.8374 -0.0417 0.5450
vn -0.2166 0.9406 -0.2615
vn -0.8915 0.2750 -0.3599
vn -0.8054 0.4683 -0.3634
vn -0.9278 0.2057 -0.3112
vn -0.5871 0.6236 -0.5162
vn -0.1195 0.9704 -0.2099
vn 0.0280 0.9996 0.0066
vn -0.0238 0.9808 -0.1934
vn 0.2441 0.9210 -0.3037
vn 0.0174 0.9514 -0.3074
vn 0.0456 0.8347 -0.5488
vn 0.1088 0.9494 -0.2946
vn 0.2589 0.9333 -0.2489
vn 0.3531 0.2830 -0.8918
vn 0.2570 0.4973 -0.8286
vn 0.1538 0.2201 -0.9633
vn 0.4133 0.6237 -0.6635
vn 0.1875 0.9704 -0.1522
vn 0.0569 0.9874 0.1479
vn 0.1709 0.9624 0.2110
vn 0.3541 0.9294 0.1036
vn 0.3013 0.9512 -0.0665
vn 0.5445 0.8210 -0.1719
vn 0.3036 0.9526 -0.0186
vn 0.3214 0.9357 0.1453
vn 0.9482 0.2906 -0.1287
vn 0.8662 0.4912 -0.0918
vn 0.9430 0.2185 -0.2511
vn 0.7721 0.6238 0.1214
vn 0.2134 0.9704 0.1132
vn 0.0015 0.9993 0.0384
vn 0.1548 0.9737 0.1672
vn 0.0278 0.9577 0.2864
vn 0.1583 0.9575 0.2411
vn 0.3676 0.8088 0.4590
vn 0.1155 0.9532 0.2793
vn 0.0538 0.9371 0.3449
vn 0.5066 0.2872 0.8130
vn 0.9963 -0.0815 0.0278
vn 0.3523 0.4973 0.7928
vn 0.5771 0.2011 0.7915
vn 0.1260 0.6236 0.7716
vn -0.0409 0.9704 0.2380
vn -0.0315 0.9992 -0.0236
vn -0.0932 0.9841 0.1511
vn -0.3297 0.9390 0.0979
vn -0.1873 0.9574 0.2200
vn -0.3514 0.8315 0.4302
vn -0.2473 0.9529 0.1754
vn -0.3401 0.9377 0.0717
vn -0.7417 0.2952 0.6023
vn -0.6858 0.5079 0.5213
vn -0.6636 0.2100 0.7180
vn -0.7184 0.6262 0.3029
vn -0.2409 0.9704 0.0169
vn 0.0256 0.9988 -0.0415
vn -0.1794 0.9805 -0.0800
vn -0.1437 0.9826 0.1177
vn 0.0520 -0.9984 -0.0217
vn 0.0375 -0.9993 -0.0057
vn 0.0536 -0.9986 -0.0015
vn 0.0174 -0.9998 -0.0136
vn -0.0011 -0.9979 -0.0640
vn -0.0015 -0.9994 -0.0344
vn 0.0109 -0.9989 -0.0463
vn -0.0100 -0.9996 -0.0252
vn -0.0591 -0.9982 -0.0129
vn -0.0340 -0.9993 -0.0134
vn -0.0485 -0.9984 -0.0283
vn -0.0285 -0.9996 0.0007
vn -0.0284 -0.9996 0.0000
vn -0.0203 -0.9998 0.0048
vn -0.0360 -0.9993 0.0043
vn -0.0433 -0.9989 0.0173
vn -0.0759 -0.9966 0.0309
vn -0.0467 -0.9983 0.0338
vn 0.0528 -0.9971 0.0552
vn 0.0313 -0.9994 0.0134
vn -0.0016 -0.9992 0.0400
vn 0.0401 -0.9992 0.0069
vn -0.0610 -0.9980 -0.0152
vn -0.0336 -0.9994 -0.0102
vn -0.0474 -0.9989 0.0003
vn -0.0360 -0.9993 -0.0073
vn -0.0458 -0.9989 -0.0030
vn -0.0174 -0.9998 -0.0113
vn 0.0160 -0.9980 -0.0616
vn 0.0019 -0.9994 -0.0337
vn -0.1117 -0.9578 -0.2648
vn 0.0236 -0.9769 -0.2125
vn 0.0518 -0.9984 -0.0230
vn 0.0319 -0.9993 -0.0211
vn -0.0091 -0.9996 -0.0259
vn -0.0039 -1.0000 0.0052
vn 0.0290 -0.9979 0.0586
vn 0.0170 -0.9994 0.0301
vn 0.0105 -0.9998 0.0140
vn -0.0212 -0.9998 0.0068
vn -0.0409 -0.9983 0.0420
vn -0.0221 -0.9993 0.0292
vn -0.0251 -0.9982 0.0545
vn -0.0288 -0.9993 0.0224
usemtl Starfish
s 1
f 1/1/1 4/2/1 3/3/1 2/4/1
f 4/2/2 6/5/2 5/6/2 3/3/2
f 7/7/3 3/3/3 5/6/3 8/8/3
f 9/9/4 1/1/4 2/4/4 10/10/4
f 11/11/5 6/5/5 13/12/5 12/13/5
f 10/10/6 2/4/6 3/3/6 7/7/6
f 14/14/7 10/10/7 7/7/7 15/15/7
f 16/16/8 11/11/8 12/13/8 17/17/8
f 18/18/9 9/9/9 10/10/9 14/14/9
f 15/15/10 7/7/10 8/8/10 19/19/10
f 20/20/11 21/21/11 9/9/11 18/18/11
f 19/19/12 8/8/12 11/11/12 16/16/12
f 8/8/13 5/6/13 6/5/13 11/11/13
f 21/21/14 22/22/14 1/1/14 9/9/14
f 23/23/15 13/12/15 6/5/15 4/2/15
f 22/22/16 23/23/16 4/2/16 1/1/16
f 24/24/17 27/25/17 26/26/17 25/27/17
f 27/25/18 29/28/18 28/29/18 26/26/18
f 30/30/19 26/26/19 28/29/19 31/31/19
f 32/32/20 24/24/20 25/27/20 33/33/20
f 33/33/21 25/27/21 26/26/21 30/30/21
f 34/34/22 33/33/22 30/30/22 35/35/22
f 36/36/23 37/37/23 12/13/23 17/17/23
f 38/38/24 32/32/24 33/33/24 34/34/24
f 35/35/25 30/30/25 31/31/25 39/39/25
f 40/40/26 41/41/26 32/32/26 38/38/26
f 39/39/27 31/31/27 37/37/27 36/36/27
f 31/31/28 28/29/28 29/28/28 37/37/28
f 41/41/29 42/42/29 24/24/29 32/32/29
f 43/43/30 13/12/30 29/28/30 27/25/30
f 42/42/31 43/43/32 27/25/33 24/24/33
f 44/44/34 47/45/34 46/46/34 45/47/34
f 47/45/35 49/48/35 48/49/35 46/46/35
f 50/50/36 46/46/36 48/49/36 51/51/36
f 52/52/37 44/44/37 45/47/37 53/53/37
f 54/54/38 49/48/38 13/12/38 12/13/38
f 53/53/39 45/47/39 46/46/39 50/50/39
f 55/55/40 53/53/40 50/50/40 56/56/40
f 57/57/41 54/54/41 12/13/41 17/17/41
f 58/58/42 52/52/42 53/53/42 55/55/42
f 56/56/43 50/50/43 51/51/43 59/59/43
f 60/60/44 61/61/44 52/52/44 58/58/44
f 59/59/45 51/51/45 54/54/45 57/57/45
f 51/51/46 48/49/46 49/48/46 54/54/46
f 61/61/47 62/62/47 44/44/47 52/52/47
f 63/63/48 13/12/48 49/48/48 47/45/48
f 64/64/49 67/65/49 66/66/49 65/67/49
f 67/65/50 69/68/50 68/69/50 66/66/50
f 70/70/51 66/66/51 68/69/51 71/71/51
f 72/72/52 64/64/52 65/67/52 73/73/52
f 74/74/53 69/68/53 13/12/53 12/13/53
f 73/73/54 65/67/54 66/66/54 70/70/54
f 75/75/55 73/73/55 70/70/55 76/76/55
f 77/77/56 72/72/56 73/73/56 75/75/56
f 76/76/57 70/70/57 71/71/57 78/78/57
f 79/79/58 80/80/58 72/72/58 77/77/58
f 78/78/59 71/71/59 74/74/59 81/81/59
f 71/71/60 68/69/60 69/68/60 74/74/60
f 80/80/61 82/82/61 64/64/61 72/72/61
f 83/83/62 13/12/62 69/68/62 67/65/62
f 82/82/63 83/83/63 67/65/63 64/64/63
f 84/84/64 87/85/64 86/86/64 85/87/64
f 87/85/65 89/88/65 88/89/65 86/86/65
f 90/90/66 86/86/66 88/89/66 91/91/66
f 92/92/67 84/84/67 85/87/67 93/93/67
f 94/94/68 89/88/68 13/12/68 12/13/68
f 93/93/69 85/87/69 86/86/69 90/90/69
f 95/95/70 93/93/70 90/90/70 96/96/70
f 97/97/71 94/94/71 12/13/71 17/17/71
f 98/98/72 92/92/72 93/93/72 95/95/72
f 96/96/73 90/90/73 91/91/73 99/99/73
f 100/100/74 101/101/74 92/92/74 98/98/74
f 99/99/75 91/91/75 94/94/75 97/97/75
f 91/91/76 88/89/76 89/88/76 94/94/76
f 101/101/77 102/102/77 84/84/77 92/92/77
f 103/103/78 13/12/78 89/88/78 87/85/78
f 102/102/79 103/103/79 87/85/79 84/84/79
f 104/104/80 107/105/80 106/106/80 105/107/80
f 105/107/81 106/106/81 28/29/81 29/28/81
f 108/108/82 31/31/82 28/29/82 106/106/82
f 109/109/83 110/110/83 107/105/83 104/104/83
f 37/37/84 12/13/84 13/12/84 29/28/84
f 110/110/85 108/108/85 106/106/85 107/105/85
f 111/111/86 112/112/86 108/108/86 110/110/86
f 113/113/87 111/111/87 110/110/87 109/109/87
f 112/112/88 39/39/88 31/31/88 108/108/88
f 20/20/89 113/113/89 109/109/89 21/21/89
f 21/21/90 109/109/90 104/104/90 22/22/90
f 23/23/91 105/107/91 29/28/91 13/12/91
f 22/22/92 104/104/92 105/107/92 23/23/92
f 114/114/93 117/115/93 116/116/93 115/117/93
f 115/117/94 116/116/94 5/6/94 6/5/94
f 118/118/95 8/8/95 5/6/95 116/116/95
f 119/119/96 120/120/96 117/115/96 114/114/96
f 120/120/97 118/118/97 116/116/97 117/115/97
f 121/121/98 122/122/98 118/118/98 120/120/98
f 123/123/99 121/121/99 120/120/99 119/119/99
f 122/122/100 19/19/100 8/8/100 118/118/100
f 100/100/101 123/123/101 119/119/101 101/101/101
f 101/101/102 119/119/102 114/114/102 102/102/102
f 103/103/103 115/117/103 6/5/103 13/12/103
f 102/102/104 114/114/104 115/117/104 103/103/104
f 124/124/105 127/125/105 126/126/105 125/127/105
f 125/127/106 126/126/106 88/89/106 89/88/106
f 128/128/107 91/91/107 88/89/107 126/126/107
f 129/129/108 130/130/108 127/125/108 124/124/108
f 130/130/109 128/128/109 126/126/109 127/125/109
f 131/131/110 132/132/110 128/128/110 130/130/110
f 133/133/111 131/131/111 130/130/111 129/129/111
f 132/132/112 99/99/112 91/91/112 128/128/112
f 79/79/113 133/133/113 129/129/113 80/80/113
f 80/80/114 129/129/114 124/124/114 82/82/114
f 83/83/115 125/127/115 89/88/115 13/12/115
f 82/82/116 124/124/116 125/127/116 83/83/116
f 134/134/117 137/135/117 136/136/117 135/137/117
f 135/137/118 136/136/118 68/69/118 69/68/118
f 138/138/119 71/71/119 68/69/119 136/136/119
f 139/139/120 140/140/120 137/135/120 134/134/120
f 140/140/121 138/138/121 136/136/121 137/135/121
f 141/141/122 142/142/122 138/138/122 140/140/122
f 81/81/123 17/17/123 12/13/123 74/74/123
f 143/143/124 141/141/124 140/140/124 139/139/124
f 142/142/125 78/78/125 71/71/125 138/138/125
f 60/60/126 143/143/126 139/139/126 61/61/126
f 61/61/127 139/139/127 134/134/127 62/62/127
f 63/63/128 135/137/128 69/68/128 13/12/128
f 62/62/129 134/134/129 135/137/129 63/63/129
f 144/144/130 147/145/130 146/146/130 145/147/130
f 145/147/131 146/146/131 48/49/131 49/48/131
f 148/148/132 51/51/132 48/49/132 146/146/132
f 149/149/133 150/150/133 147/145/133 144/144/133
f 150/150/134 148/148/134 146/146/134 147/145/134
f 151/151/135 152/152/135 148/148/135 150/150/135
f 153/153/136 151/151/136 150/150/136 149/149/136
f 152/152/137 59/59/137 51/51/137 148/148/137
f 40/40/138 153/153/138 149/149/138 41/41/138
f 41/41/139 149/149/139 144/144/139 42/42/139
f 43/43/140 145/147/140 49/48/140 13/12/140
f 42/42/31 144/144/141 145/147/141 43/43/32
f 44/44/142 62/62/142 63/63/142 47/45/142
usemtl Underside
f 18/18/143 14/14/143 15/15/143 154/154/143
f 154/154/144 15/15/144 19/19/144 16/16/144
f 155/155/145 154/154/145 16/16/145 17/17/145
f 20/20/146 18/18/146 154/154/146 155/155/146
f 38/38/147 34/34/147 35/35/147 156/156/147
f 156/156/148 35/35/148 39/39/148 36/36/148
f 157/157/149 156/156/149 36/36/149 17/17/149
f 40/40/150 38/38/150 156/156/150 157/157/150
f 58/58/151 55/55/151 56/56/151 158/158/151
f 158/158/152 56/56/152 59/59/152 57/57/152
f 159/159/153 158/158/153 57/57/153 17/17/153
f 60/60/154 58/58/155 158/158/155 159/159/156
f 77/77/157 75/75/157 76/76/157 160/160/157
f 160/160/158 76/76/158 78/78/158 81/81/158
f 161/161/159 160/160/159 81/81/159 17/17/159
f 79/79/160 77/77/160 160/160/160 161/161/160
f 98/98/161 95/95/161 96/96/161 162/162/161
f 162/162/162 96/96/162 99/99/162 97/97/162
f 163/163/163 162/162/163 97/97/163 17/17/163
f 100/100/164 98/98/164 162/162/164 163/163/164
f 113/113/165 164/164/165 112/112/165 111/111/165
f 164/164/166 36/36/167 39/39/168 112/112/168
f 155/155/169 17/17/169 36/36/167 164/164/166
f 20/20/170 155/155/170 164/164/170 113/113/170
f 123/123/171 165/165/171 122/122/171 121/121/171
f 165/165/172 16/16/172 19/19/172 122/122/172
f 163/163/173 17/17/173 16/16/173 165/165/173
f 100/100/174 163/163/174 165/165/174 123/123/174
f 133/133/175 166/166/175 132/132/175 131/131/175
f 166/166/176 97/97/176 99/99/176 132/132/176
f 161/161/177 17/17/177 97/97/177 166/166/177
f 79/79/178 161/161/178 166/166/178 133/133/178
f 143/143/179 167/167/179 142/142/179 141/141/179
f 167/167/180 81/81/180 78/78/180 142/142/180
f 159/159/181 17/17/181 81/81/181 167/167/181
f 60/60/154 159/159/156 167/167/182 143/143/182
f 153/153/183 168/168/183 152/152/183 151/151/183
f 168/168/184 57/57/184 59/59/184 152/152/184
f 157/157/185 17/17/185 57/57/185 168/168/185
f 40/40/186 157/157/186 168/168/186 153/153/186
